<svg width="195" height="25" viewBox="0 0 195 25" fill="none" xmlns="http://www.w3.org/2000/svg">
<path d="M8.872 24.432C7.36 24.432 5.974 24.162 4.714 23.622C3.454 23.07 2.44 22.26 1.672 21.192C0.904 20.124 0.508 18.804 0.484 17.232H3.22C3.22 18.288 3.478 19.158 3.994 19.842C4.51 20.514 5.194 21.018 6.046 21.354C6.898 21.678 7.828 21.84 8.836 21.84C9.928 21.84 10.876 21.666 11.68 21.318C12.484 20.97 13.102 20.514 13.534 19.95C13.978 19.374 14.2 18.744 14.2 18.06C14.2 17.1 13.906 16.326 13.318 15.738C12.73 15.138 11.86 14.652 10.708 14.28L6.712 12.876C4.84 12.204 3.424 11.436 2.464 10.572C1.504 9.708 1.024 8.496 1.024 6.936C1.024 5.184 1.696 3.756 3.04 2.652C4.396 1.548 6.316 0.995998 8.8 0.995998C11.104 0.995998 12.904 1.53 14.2 2.598C15.496 3.654 16.24 5.076 16.432 6.864H13.66C13.48 5.82 12.988 5.01 12.184 4.434C11.392 3.846 10.264 3.552 8.8 3.552C7.312 3.552 6.154 3.882 5.326 4.542C4.498 5.202 4.084 6.036 4.084 7.044C4.084 7.872 4.342 8.532 4.858 9.024C5.386 9.504 6.208 9.936 7.324 10.32L12.004 11.94C13.624 12.48 14.902 13.236 15.838 14.208C16.786 15.18 17.26 16.44 17.26 17.988C17.26 19.188 16.936 20.274 16.288 21.246C15.652 22.218 14.71 22.992 13.462 23.568C12.214 24.144 10.684 24.432 8.872 24.432ZM31.3897 24.432C29.5177 24.432 27.8437 24 26.3677 23.136C24.8917 22.272 23.7277 20.976 22.8757 19.248C22.0237 17.508 21.5977 15.336 21.5977 12.732C21.5977 10.092 22.0237 7.908 22.8757 6.18C23.7277 4.44 24.8917 3.144 26.3677 2.292C27.8437 1.428 29.5177 0.995998 31.3897 0.995998C33.2617 0.995998 34.9357 1.428 36.4117 2.292C37.8877 3.156 39.0517 4.458 39.9037 6.198C40.7557 7.938 41.1817 10.116 41.1817 12.732C41.1817 15.36 40.7557 17.544 39.9037 19.284C39.0517 21.012 37.8877 22.302 36.4117 23.154C34.9357 24.006 33.2617 24.432 31.3897 24.432ZM31.3897 21.84C33.5137 21.84 35.1877 21.066 36.4117 19.518C37.6477 17.97 38.2657 15.696 38.2657 12.696C38.2657 9.756 37.6477 7.494 36.4117 5.91C35.1877 4.314 33.5137 3.516 31.3897 3.516C29.2897 3.516 27.6157 4.314 26.3677 5.91C25.1317 7.506 24.5137 9.78 24.5137 12.732C24.5137 15.72 25.1317 17.988 26.3677 19.536C27.6157 21.072 29.2897 21.84 31.3897 21.84ZM49.444 1.392V21.552H59.524V24H46.636V1.392H49.444ZM60.7758 24L68.5518 1.392H71.9718L79.5678 24H76.6158L74.7078 18.204H65.7078L63.7278 24H60.7758ZM66.4278 16.008H73.9878L70.2078 4.812L66.4278 16.008ZM84.1477 24V1.392H92.0317C94.6117 1.392 96.5617 2.01 97.8817 3.246C99.2137 4.47 99.8797 6.084 99.8797 8.088C99.8797 10.068 99.2137 11.676 97.8817 12.912C96.5617 14.136 94.6117 14.748 92.0317 14.748H86.9557V24H84.1477ZM96.8197 24L90.3397 13.74H93.3997L100.456 24H96.8197ZM86.9557 12.768H91.8157C93.5077 12.768 94.7917 12.354 95.6677 11.526C96.5557 10.686 96.9997 9.6 96.9997 8.268C96.9997 6.9 96.5737 5.814 95.7217 5.01C94.8817 4.206 93.6517 3.804 92.0317 3.804H86.9557V12.768ZM105.831 0.635998H110.475L121.095 17.304H120.771V0.635998H125.019V24H120.699L109.395 6.324H110.079V24H105.831V0.635998ZM140.635 24.504C138.559 24.504 136.723 24.048 135.127 23.136C133.543 22.224 132.301 20.862 131.401 19.05C130.501 17.238 130.051 14.988 130.051 12.3C130.051 9.564 130.501 7.302 131.401 5.514C132.301 3.714 133.543 2.376 135.127 1.5C136.723 0.611999 138.559 0.167998 140.635 0.167998C142.723 0.167998 144.565 0.623998 146.161 1.536C147.757 2.436 149.005 3.786 149.905 5.586C150.805 7.386 151.255 9.624 151.255 12.3C151.255 15.024 150.805 17.292 149.905 19.104C149.005 20.916 147.757 22.272 146.161 23.172C144.565 24.06 142.723 24.504 140.635 24.504ZM140.635 20.652C142.543 20.652 144.055 19.932 145.171 18.492C146.299 17.052 146.863 14.976 146.863 12.264C146.863 9.648 146.299 7.614 145.171 6.162C144.055 4.71 142.543 3.984 140.635 3.984C138.763 3.984 137.263 4.716 136.135 6.18C135.007 7.632 134.443 9.672 134.443 12.3C134.443 15 135.007 17.07 136.135 18.51C137.263 19.938 138.763 20.652 140.635 20.652ZM162.991 19.356L168.967 0.635998H173.431L165.403 24H160.939L153.019 0.635998H157.519L163.423 19.356H162.991ZM173.413 24L181.369 0.635998H186.697L194.329 24H189.865L188.245 18.96H179.569L177.913 24H173.413ZM180.649 15.756H187.237L183.961 5.712L180.649 15.756Z" fill="#0e2e3d"/>
</svg>
